<?xml version="1.0" standalone="no"?>
<!DOCTYPE svg PUBLIC "-//W3C//DTD SVG 1.1//EN" "http://www.w3.org/Graphics/SVG/1.1/DTD/svg11.dtd" >
<!--
2013-9-30: Created.
-->
<svg>
<metadata>
Created by iconfont
</metadata>
<defs>

<font id="iconfont" horiz-adv-x="1024" >
  <font-face
    font-family="iconfont"
    font-weight="500"
    font-stretch="normal"
    units-per-em="1024"
    ascent="896"
    descent="-128"
  />
    <missing-glyph />
    
    <glyph glyph-name="gouwu" unicode="&#59185;" d="M1023.812592 528.728723c-0.1344 69.823863-54.623892 130.454143-123.498957 138.252528-14.009572 1.585597-28.259144 1.219198-42.403117 1.425597-14.99357 0.2192-29.998341 0.287999-44.985511-0.0896-4.767991-0.12-6.462387 1.569597-7.939184 5.830389-23.575954 68.006266-63.417475 124.234955-122.13416 166.370872-44.830312 32.171137-94.835013 50.6751-150.038105 54.654292-1.294397 0.0928-2.563195 0.542399-3.844792 0.825598-11.332778 0-22.665555 0-33.998333 0-9.543981-1.227198-19.132762-2.187196-28.627144-3.724793-64.420673-10.435179-119.124565-39.825522-165.231675-85.550232-37.895925-37.580726-64.911872-82.052638-82.105438-132.487739-1.575997-4.620791-3.662393-5.931188-8.383983-5.897588-24.651151 0.1744-49.319903 0.483199-73.955054-0.2032-69.868662-1.942396-128.486147-56.702288-135.767733-126.273351-0.136-1.294397-0.591999-2.555195-0.899198-3.831992 0-178.316449 0-356.634498 0-534.950947 1.604797-8.457583 2.708795-17.047966 4.89279-25.35355 16.230368-61.710279 71.817459-105.193393 135.721333-105.521392 74.315054-0.380799 148.631707-0.1104 222.948361-0.112 172.127661-0.0032 344.255322-0.0272 516.381383 0.0128 60.85428 0.0144 112.929378 35.44153 134.650935 91.47182 6.015988 15.518369 9.273582 31.651138 9.279982 48.284705C1023.945392 184.151801 1024.145392 356.441062 1023.812592 528.728723zM278.51006 671.450042c27.414346 65.529471 70.636661 117.321369 136.362932 146.034912 93.007817 40.63192 178.938848 24.886351 255.970696-40.025521 33.310334-28.068745 56.859088-63.652675 73.676655-103.727796 0.511999-1.222398 0.948798-2.478395 1.358397-3.739193 0.0832-0.259199-0.1136-0.607999-0.2448-1.207998-155.770893 0-311.586587 0-467.810279 0C278.11486 669.944445 278.21246 670.739643 278.51006 671.450042zM966.815905 67.131232c-0.2192-66.13427-51.748698-125.329353-117.05097-135.862133-9.163182-1.478397-18.553563-2.161596-27.838345-2.166396-206.634793-0.12-413.269586 0.1808-619.90278-0.254399-63.353475-0.1328-116.519771 38.814324-136.438131 93.359816-5.649589 15.47037-8.630383 31.428738-8.631983 47.913506-0.0032 133.974136-0.260799 267.949872 0.1184 401.924009 0.1968 69.475063 53.686294 129.140546 122.639759 138.090928 7.540785 0.979198 15.18077 1.201598 23.452754 1.825596-0.873598-8.270384-2.183996-15.636769-2.332795-23.027155-0.433599-21.623957-0.542399-43.259115-0.409599-64.887872 0.0192-3.273594-0.537599-4.97279-3.327993-6.758387-19.521562-12.486375-29.939141-35.39193-25.63995-57.172687 4.811191-24.375952 19.351962-40.135921 43.601514-46.097509 25.35675-6.235188 51.867098 6.619187 63.524675 30.22394 11.676777 23.641553 5.475189 52.691096-15.17277 69.060664-3.855992 3.057594-5.641589 6.201588-6.073588 10.991978-2.513595 27.865545-1.526397 55.575891 3.043194 83.167836 0.2128 1.281597 0.651199 2.526395 1.022398 3.932792 167.090871 0 334.031342 0 501.690212 0 1.227198-9.452781 2.743995-18.790363 3.595193-28.187145 1.897596-20.959959 1.889596-41.940717-0.779198-62.844676-0.2448-1.915196-1.939196-4.031992-3.547193-5.32799-19.107162-15.40797-26.732747-35.33433-21.065559-59.030284 5.631989-23.550354 21.523158-37.894325 45.276711-42.617516 26.059149-5.18079 52.463897 9.783981 62.556677 34.731132 10.05918 24.863951 1.391997 53.499095-21.038359 68.321465-3.686393 2.435195-4.83039 4.606391-4.454391 9.102382 2.255996 26.985547 1.455997 53.924694-2.407995 80.751841-0.2112 1.463997-0.2288 2.953594-0.387199 5.11039 17.529565 0.572799 34.023933-1.985596 50.067101-7.457585 56.867088-19.398362 95.881411-72.811057 95.996611-132.892538C967.164704 336.413902 967.262304 201.770967 966.815905 67.131232z"  horiz-adv-x="1024" />

    
    <glyph glyph-name="huafeichongzhi" unicode="&#58982;" d="M845.102426 800.303027c0 42.17986-42.149142 95.65499-97.026069 95.65499l-470.661832 0c-64.921945 0-98.958276-60.096036-98.958276-96.057406l0-833.888049c0-46.688343 49.603549-94.012563 95.405145-94.012563l475.397633 0c89.927999 0 95.875141 97.017877 95.875141 97.017877S846.139694 614.355509 845.102426 800.303027L845.102426 800.303027 845.102426 800.303027zM512.002048-90.068537c-23.021625 0-41.70372 19.08963-41.70372 42.680575 0 23.542819 18.681071 42.664192 41.70372 42.664192 23.029817 0 41.710888-19.121373 41.710888-42.664192C553.712936-70.978907 535.031865-90.068537 512.002048-90.068537L512.002048-90.068537 512.002048-90.068537zM774.620394 17.43466 249.376534 17.43466 249.376534 786.825705l525.251027 0L774.620394 17.43466 774.620394 17.43466 774.620394 17.43466zM774.620394 17.43466M691.578506 584.759056l-35.899932 35.476014L515.411825 471.483814 368.326546 627.453967l-35.9071-35.467822 121.638923-128.986839L351.001194 462.999306l0-37.271011 132.865588 0 0-72.375328-132.865588-0.159737 0-36.104724 132.865588 0 0-140.804326 56.270533 0 0 140.804326 132.85842-0.021503-0.046078 36.126227L540.137314 353.19323l0 72.527898 132.812342 0 0 37.278178-96.170041 0L691.578506 584.759056 691.578506 584.759056zM691.578506 584.759056"  horiz-adv-x="1024" />

    
    <glyph glyph-name="12" unicode="&#59134;" d="M962.957 801.727c0 20.227-16.254 36.481-36.481 36.481h-827.146c-20.227 0-36.481-16.254-36.481-36.481s16.254-36.481 36.481-36.481h323.273l-334.832-335.554c-14.448-14.448-14.087-37.565 0-51.651 7.224-7.224 16.615-10.836 26.006-10.836 9.391 0 18.782 3.612 26.006 10.836l327.969 328.33v-741.903c0-20.227 16.254-36.481 36.481-36.481s36.481 16.254 36.481 36.481v751.295l333.026-333.748c7.224-7.224 16.615-10.836 26.006-10.836 9.391 0 18.782 3.612 26.006 10.836 14.448 14.448 14.448 37.565 0 51.651l-330.859 331.22h331.22c20.588 0 36.842 16.615 36.842 36.842z"  horiz-adv-x="1024" />

    
    <glyph glyph-name="Fill" unicode="&#58953;" d="M210.824 810.827l85.173 85.173 425.924-425.924-8.252-8.252 8.252 7.891 85.173-85.173-508.808-486.159-85.173 85.173 421.888 403.095z"  horiz-adv-x="1024" />

    
    <glyph glyph-name="zuoyoujiantou2" unicode="&#58635;" d="M281.241-40.602l36.198-36.198 450.56 450.56-450.56 450.56-36.198-36.198 414.362-414.362z"  horiz-adv-x="1024" />

    
    <glyph glyph-name="dianhuaqia" unicode="&#59260;" d="M891.010103 588.752314c-0.010233 0.375553-0.026606 0.74906-0.056282 1.12359-0.025583 0.315178-0.061398 0.626263-0.101307 0.937349a19.97289 19.97289 0 0 1-0.607844 2.974751 20.301372 20.301372 0 0 1-4.333702 7.92346c-0.122797 0.13917-0.230244 0.287549-0.357133 0.424672L627.106598 879.820506a20.652366 20.652366 0 0 1-1.612731 1.547239c-3.737114 4.926196-9.636474 8.121981-16.297174 8.121981H139.2863c-39.530318 0-71.690786-35.205826-71.690786-78.479399V-43.009304c0-43.273573 32.160467-78.478376 71.690786-78.478375h680.059623c39.531342 0 71.691809 35.204803 71.691809 78.478375V588.194612c0 0.188288-0.023536 0.370437-0.027629 0.557702z m-71.66418-669.308769H139.2863c-16.672728 0-30.758538 17.194614-30.758538 37.546128V811.010327c0 20.352537 14.08581 37.547151 30.758538 37.547151h460.999442l249.819742-268.413216V-43.009304c0-20.352537-14.08581-37.547151-30.759561-37.547151zM724.732056 390.567579h-490.828818c-27.571962 0-50.002834-22.430872-50.002834-50.002834V19.412374c0-27.570939 22.430872-50.001811 50.002834-50.00181h490.828818c27.570939 0 50.001811 22.430872 50.00181 50.00181V340.564745c0 27.570939-22.430872 50.002834-50.00181 50.002834z m9.069563-371.155205c0-5.001921-4.068665-9.069563-9.069563-9.069562h-490.828818c-5.001921 0-9.070586 4.068665-9.070587 9.069562V340.564745c0 5.001921 4.069689 9.070586 9.070587 9.070586h490.828818c5.001921 0 9.069563-4.069689 9.069563-9.070586V19.412374zM667.300019 241.899608h-71.626318v62.417585c0 11.30344-9.162684 20.466124-20.466124 20.466124s-20.466124-9.162684-20.466124-20.466124v-62.417585H274.370905c-11.30344 0-20.466124-9.162684-20.466124-20.466124s9.162684-20.466124 20.466124-20.466124h392.930137c11.30344 0 20.466124 9.162684 20.466124 20.466124s-9.163707 20.466124-20.467147 20.466124zM667.300019 152.867876h-392.929114c-11.30344 0-20.466124-9.162684-20.466124-20.466124s9.162684-20.466124 20.466124-20.466124h71.62734v-62.417585c0-11.30344 9.162684-20.466124 20.466124-20.466124s20.466124 9.162684 20.466124 20.466124v62.417585h280.370549c11.30344 0 20.466124 9.162684 20.466124 20.466124s-9.163707 20.466124-20.467147 20.466124z"  horiz-adv-x="1024" />

    
    <glyph glyph-name="gengduo" unicode="&#58909;" d="M512.5 832.1c-247.1 0-448.2-201-448.2-448.2s201-448.2 448.2-448.2 448.2 201 448.2 448.2S759.6 832.1 512.5 832.1z m0-820c-205 0-371.9 166.8-371.9 371.9s166.8 371.9 371.9 371.9S884.4 589 884.4 384 717.5 12.1 512.5 12.1zM746.3 391.9c-0.4 1.8-0.8 3.6-1.5 5.4-1.2 3.4-3.1 6.3-5.3 9.3-0.5 0.7-0.6 1.5-1.2 2.1-0.3 0.4-0.8 0.5-1.1 0.8-1 1.1-1.6 2.6-2.8 3.6L450.1 659.5c-16 13.8-40 12-53.8-3.9-13.8-15.9-12.1-40 3.9-53.8L651.7 384 400.1 166.1c-15.9-13.8-17.7-37.9-3.9-53.8 7.5-8.7 18.2-13.2 28.8-13.2 8.8 0 17.7 3.1 25 9.3l284.5 246.5c1.2 1.1 1.8 2.5 2.8 3.7 0.3 0.3 0.7 0.4 1 0.8 0.5 0.6 0.7 1.4 1.2 2.1 2.2 3 4 5.9 5.3 9.3 0.7 1.8 1 3.5 1.5 5.4 0.6 2.7 1 5.2 1 7.9 0 2.6-0.4 5.1-1 7.8z"  horiz-adv-x="1024" />

    
    <glyph glyph-name="weibo" unicode="&#58627;" d="M755.948050962963 398.22373925925933c-13.669110518518519 4.122699851851851-23.037117629629627 6.929825185185185-15.88155733333333 25.027470222222224 15.49683674074074 39.27305481481481 17.117032296296294 73.17094399999999 0.2876302222222222 97.33188266666666-31.50825244444444 45.35333925925925-117.75362844444443 42.89938014814814-216.59405274074072 1.235474962962963 0 0.04854518518518517-31.03493688888889-13.683674074074075-23.10993540740741 11.118061037037036 15.20799288888889 49.21996325925925 12.914232888888888 90.44938903703704-10.747903999999998 114.25716148148148-53.63029333333333 54.03200474074074-196.2439111111111-2.037684148148148-318.53044622222217-125.1664782222222C79.79250725925931 429.78053688888883 26.608829629629668 332.0311656296295 26.608829629629668 247.5006482962964c0-161.69430281481482 205.89348029629627-260.0055845925926 407.3195899259259-260.0055845925926 264.0566802962963 0 439.7089374814815 154.4926245925926 439.7089374814815 277.17237570370366C873.6373570370372 338.76802370370376 811.6487964444444 380.83364029629615 755.948050962963 398.22373925925933L755.948050962963 398.22373925925933zM434.4660574814814 45.45801481481476c-160.7318945185185-15.978647703703704-299.47039288888885 57.19350992592592-309.91488948148145 163.46134755555553-10.436001185185185 106.25206044444444 111.44154074074075 205.3485605925926 272.1503762962963 221.35876266666665 160.7476717037037 15.995638518518515 299.5019472592592-57.15952829629629 309.91488948148145-163.39581155555553C717.0281623703703 160.56593066666665 595.23072 61.46943051851861 434.4660574814814 45.45801481481476L434.4660574814814 45.45801481481476zM931.2956871111111 694.1175656296296c-63.77016888888888 71.19758222222222-157.83010607407408 98.34283614814815-244.63617896296296 79.7488165925926l-0.04854518518518517 0c-20.08557037037037-4.331444148148148-32.88814933333333-24.224047407407408-28.588259555555553-44.42248533333333 4.282898962962962-20.21421511111111 24.032293925925924-33.128448 44.13242785185185-28.812781037037038 61.74947555555555 13.20307674074074 128.59983644444443-6.1118388148148135 173.92162133333332-56.67893096296296 45.30479407407407-50.58286933333333 57.5940077037037-119.56800474074073 38.19777896296296-180.03224651851852l0.016990814814814813-0.015777185185185186c-6.321796740740739-19.700849777777776 4.378775703703704-40.76460562962963 23.967971555555554-47.13373392592594 19.49210548148148-6.353351111111111 40.45998459259259 4.395766518518518 46.79755851851852 24.048071111111113l0.016990814814814813 0.14442192592592593C1012.2811922962965 526.0371437037038 995.0816331851851 622.9830921481481 931.2956871111111 694.1175656296296M833.3703395555556 605.1281730370371c-31.025227851851852 34.668544-76.86037807407408 47.84006637037036-119.1650797037037 38.79124385185185-17.29422222222222-3.7222020740740747-28.298202074074073-20.85622518518518-24.608768-38.27787851851851 3.7064248888888884-17.358544592592587 20.71058962962963-28.508159999999997 37.956266666666664-24.722849185185183l0-0.04854518518518517c20.679035259259262 4.411543703703703 43.10812444444445-2.0049161481481477 58.26878577777778-18.930194962962965 15.192215703703704-16.958046814814814 19.283361185185182-40.05948681481482 12.769810962962962-60.336810666666665l0.03155437037037037 0c-5.4237108148148145-16.909501629629627 3.7683199999999992-35.10180977777778 20.581944888888888-40.5874157037037 16.829402074074075-5.422497185185184 34.86151111111111 3.8180788148148146 40.28279466666667 20.774911999999997C872.7878162962963 523.2288047407407 864.4793078518519 570.4596290370371 833.3703395555556 605.1281730370371M450.5248047407407 348.49041066666666c-76.48415288888887 20.038238814814815-162.92249600000002-18.35250725925926-196.14803437037037-86.21382162962962-33.833566814814816-69.22422044444444-1.1226074074074075-146.05425777777776 76.15525925925925-171.17760474074072 80.03766044444443-25.988664888888888 174.38522785185182 13.845086814814813 207.20177303703707 88.55734044444443C570.0770322962962 252.6840604444444 529.6801564444444 327.89268859259266 450.5248047407407 348.49041066666666L450.5248047407407 348.49041066666666zM392.1285878518519 171.73132325925928c-15.553877333333334-24.978925037037037-48.84980622222222-35.9343597037037-73.91732622222221-24.400023703703706-24.714353777777777 11.325591703703706-32.00584059259259 40.331339851851844-16.460458666666668 64.7010228148148 15.360910222222222 24.2568154074074 47.53544533333333 35.05447822222222 72.41727999999998 24.546872888888885C399.3484705185185 225.763328 407.3936213333334 196.9505469629628 392.1285878518519 171.73132325925928L392.1285878518519 171.73132325925928zM443.3461854814814 237.92389688888875c-5.631241481481481-9.673841777777776-18.05638162962963-14.341461333333335-27.793332148148146-10.298861037037037-9.569469629629628 3.96250074074074-12.569562074074073 14.791717925925925-7.131287703703705 24.305360592592592 5.598473481481482 9.463883851851852 17.543016296296294 14.069608296296297 27.088213333333332 10.249102222222223C445.21517511111114 258.6187093333334 448.7043602962963 247.6620610370369 443.3461854814814 237.92389688888875L443.3461854814814 237.92389688888875zM443.3461854814814 237.92389688888875"  horiz-adv-x="1024" />

    
    <glyph glyph-name="shipin" unicode="&#58896;" d="M860.16-15.9744H167.3216A111.0016 111.0016 0 0 0 56.32 94.9248V633.6512a111.0016 111.0016 0 0 0 111.0016 110.8992H860.16a111.0016 111.0016 0 0 0 110.8992-110.8992v-538.7264A111.0016 111.0016 0 0 0 860.16-15.9744zM167.3216 676.7104a43.1104 43.1104 0 0 1-43.0592-43.0592v-538.7264a43.1104 43.1104 0 0 1 43.0592-43.0592H860.16a43.1104 43.1104 0 0 1 43.0592 43.0592V633.6512a43.1104 43.1104 0 0 1-43.0592 43.0592zM434.8928 202.8544a70.8608 70.8608 0 0 0-70.6048 70.7072V454.9632a70.6048 70.6048 0 0 0 105.6256 61.44l158.72-90.7264a70.6048 70.6048 0 0 0 0-122.624l-158.72-90.7264a70.5024 70.5024 0 0 0-35.0208-9.472z m0 254.976a2.816 2.816 0 0 1-1.4336-0.4096 2.4576 2.4576 0 0 1-1.3824-2.4064v-181.4016a2.7648 2.7648 0 0 1 4.1472-2.4064l158.72 90.7264a2.7648 2.7648 0 0 1 0 4.8128l-158.72 90.7264a2.56 2.56 0 0 1-1.28 0.3584z"  horiz-adv-x="1024" />

    
    <glyph glyph-name="icon-_yijiuhuanxin" unicode="&#58636;" d="M275.46624 516.45952l-25.23136 56.76544-107.22304-50.4576C199.77728 674.14528 344.84736 775.0656 508.84608 775.0656c182.92224 0 340.61312-126.15168 384.76288-302.76096l63.06816 12.61568C906.21952 693.0688 723.3024 838.144 515.1488 838.144c-182.91712 0-340.60288-107.22816-416.29696-271.22688l-31.5392 81.9968L4.24448 636.29824l75.68896-208.14848 195.5328 88.30976zM1019.76064 119.08096l-75.68896 208.14848-195.53792-88.29952 25.23136-56.77056 94.6176 44.14976c-63.0784-138.76224-201.85088-233.37984-359.53152-233.37984-182.92224 0-340.608 126.15168-384.76288 302.76096l-63.0784-12.61056c50.46272-208.14848 233.37984-353.21856 441.52832-353.21856 182.92224 0 340.61312 107.21792 416.30208 271.22176l31.52896-100.92032 69.39136 18.9184z"  horiz-adv-x="1024" />

    
    <glyph glyph-name="fma" unicode="&#58632;" d="M511.999996 584.3475599999999l111.303859 0c24.589948 0 44.521339 19.932413 44.521339 44.521339 0 24.589948-19.932413 44.521339-44.521339 44.521339L489.738816 673.3902390000001c-73.765759 0-133.56504-59.799281-133.56504-133.56504l0-400.695119c0-24.589948 19.932413-44.521339 44.521339-44.521339 24.589948 0 44.521339 19.932413 44.521339 44.521339L445.216455 250.43496000000005c0 36.884411 29.898108 66.78252 66.78252 66.78252l111.303859 0c24.589948 0 44.521339 19.932413 44.521339 44.521339 0 24.589948-19.932413 44.521339-44.521339 44.521339L511.999996 406.260159c-36.884411 0-66.78252 29.89913-66.78252 66.78252l0 44.521339C445.217476 554.449451 475.115585 584.3475599999999 511.999996 584.3475599999999zM511.999996 896c-282.768572 0-512-229.230407-512-512s229.231428-512 512-512 512 229.230407 512 512S794.768568 896 511.999996 896zM511.999996-38.956300000000056c-233.592761 0-422.9563 189.363539-422.9563 422.9563S278.407235 806.9563 511.999996 806.9563s422.9563-189.36456 422.9563-422.9563S745.591735-38.956300000000056 511.999996-38.956300000000056z"  horiz-adv-x="1024" />

    
    <glyph glyph-name="erji" unicode="&#58625;" d="M999.437049 290.807316V414.669657c0 64.947508-12.707121 127.969694-37.864654 187.397947-24.259049 57.374577-58.914834 108.844835-103.197225 152.998872-44.154037 44.154037-95.624295 78.938176-152.998872 103.197225C646.0764 883.292879 583.054213 896 518.106706 896H505.784649c-64.947508 0-127.969694-12.707121-187.397947-37.864654-57.374577-24.259049-108.844835-58.914834-152.998871-103.197225-44.154037-44.154037-78.809821-95.624295-103.068871-152.870517C37.161427 542.639351 24.454306 479.617165 24.454306 414.669657v-351.948747c0-40.303394 32.858818-73.162212 73.162212-73.162212h71.621955c40.303394 0 73.162212 32.858818 73.162212 73.162212v227.187922c0 40.303394-32.858818 73.162212-73.162212 73.162212H97.616518c-3.978998 0-7.82964-0.25671-11.551928-0.898483V414.669657C86.06459 646.093286 274.36102 834.389716 505.784649 834.389716h12.322057c231.423629 0 419.720059-188.29643 419.720059-419.720059v-52.497096c-3.722288 0.641774-7.572931 0.898483-11.551928 0.898483h-71.621955c-40.303394 0-73.162212-32.858818-73.162213-73.162212v-227.187922c0-24.130695 11.808638-45.694294 29.906659-58.914834-59.043189-24.900823-132.975529-55.449256-160.956867-64.819152-12.963831-4.364062-35.939332-7.059512-60.326736-8.728124-6.674447 12.450412-19.766633 20.921826-34.784139 20.921826H476.263055c-21.820309 0-39.533265-17.712957-39.533266-39.533266s17.712957-39.533265 39.533266-39.533265h19.509923s16.814473-0.25671 40.431749 0h19.124859c2.053676 0 3.978998 0.128355 5.904319 0.385064 41.073523 1.026838 90.233395 3.850643 112.952187 11.166864 39.533265 12.707121 159.544964 69.568279 234.889207 105.76432h17.199538c40.303394 0 73.162212 32.858818 73.162212 73.162213v227.187921 1.026839zM97.616518 301.46076000000005h71.621955c6.417738 0 11.551928-5.13419 11.551929-11.551928v-227.187922c0-6.417738-5.13419-11.551928-11.551929-11.551928H97.616518c-6.417738 0-11.551928 5.13419-11.551928 11.551928v227.187922c0 6.289383 5.13419 11.551928 11.551928 11.551928z m745.484435-11.551928c0 6.417738 5.13419 11.551928 11.551929 11.551928h71.621955c6.161028 0 11.295219-4.877481 11.551928-11.038509v-227.701341c0-6.417738-5.13419-11.551928-11.551928-11.551928h-71.621955c-6.417738 0-11.551928 5.13419-11.551929 11.551928v227.187922z"  horiz-adv-x="1024" />

    
    <glyph glyph-name="kefuxitongicon-" unicode="&#58903;" d="M751.752533 834.56H272.247467A273.066667 273.066667 0 0 1 0 562.312533V318.464a271.701333 271.701333 0 0 1 89.838933-201.659733l-32.9728-159.9488 312.866134 89.429333h382.293333A273.066667 273.066667 0 0 1 1024 318.464V562.312533A273.066667 273.066667 0 0 1 751.752533 834.56zM251.904 355.054933a81.237333 81.237333 0 1 0 81.237333 81.237334 81.237333 81.237333 0 0 0-81.237333-81.237334z m276.343467 0a81.237333 81.237333 0 1 0 81.237333 81.237334 81.237333 81.237333 0 0 0-81.237333-81.237334z m268.219733 0a81.237333 81.237333 0 1 0 81.237333 81.237334 81.237333 81.237333 0 0 0-81.237333-81.237334z"  horiz-adv-x="1024" />

    
    <glyph glyph-name="xiaomi" unicode="&#58626;" d="M716.8 90.17685300000005L716.8 511.290027c0 95.68256-77.544107 173.2608-173.216427 173.2608L56.664747 684.550827c-3.754667 0-6.795947-3.024213-6.795947-6.741333L49.8688 90.18026699999996c0-3.71712 3.04128-6.72768 6.795947-6.72768l130.061653 0c3.754667 0 6.792533 3.027627 6.792533 6.765227L193.518933 551.437653c0 3.744427 3.04128 6.782293 6.795947 6.782293l279.68512 0c52.52096 0 95.112533-42.571093 95.112533-95.09888l0-372.8896c0-3.741013 3.037867-6.761813 6.772053-6.761813l128.146773 0c3.72736 0 6.772053 3.017387 6.772053 6.72768M454.15424 90.221227c0-3.744427-3.01056-6.76864-6.76864-6.76864L317.354667 83.452587c-3.754667 0-6.795947 3.027627-6.795947 6.76864L310.55872 443.651413c0 3.741013 3.04128 6.77888 6.795947 6.77888l130.030933 0c3.75808 0 6.76864-3.037867 6.76864-6.77888l0-353.447253L454.15424 90.221227zM974.134613 90.221227c0-3.744427-3.044693-6.76864-6.79936-6.76864l-130.000213 0c-3.764907 0-6.826667 3.027627-6.826667 6.76864L830.508373 677.748053c0 3.75808 3.06176 6.792533 6.826667 6.792533l130.000213 0c3.75808 0 6.79936-3.034453 6.79936-6.792533L974.134613 90.221227z"  horiz-adv-x="1024" />

    
    <glyph glyph-name="renzheng" unicode="&#58964;" d="M515.2 384m-480 0a480 480 0 1 1 960 0 480 480 0 1 1-960 0ZM432 86.4L249.6 563.2c-3.2 9.6-3.2 19.2 3.2 25.6 3.2 9.6 12.8 12.8 22.4 12.8h89.6c12.8 0 22.4-6.4 28.8-19.2l124.8-320c3.2-6.4 9.6-12.8 19.2-12.8s16 6.4 19.2 12.8l124.8 320c3.2 12.8 16 19.2 28.8 19.2h41.6c9.6 0 19.2-3.2 25.6-12.8 6.4-6.4 6.4-19.2 3.2-25.6l-185.6-476.8c-3.2-12.8-16-19.2-28.8-19.2h-105.6c-12.8 0-22.4 9.6-28.8 19.2z"  horiz-adv-x="1024" />

    
    <glyph glyph-name="zuohuadong" unicode="&#58897;" d="M739.555556 686.023111L643.555556 782.222222 227.555556 365.312l416-416.910222L739.555556 44.600889 419.555556 365.312z"  horiz-adv-x="1024" />

    
    <glyph glyph-name="tian" unicode="&#58884;" d="M188.783 701.437c67.981 67.991 155.676 112.102 252.56 126.017 118.413 17.023 236.41-13.172 332.18-84.883C869.31 670.805 931.43 566.044 948.45 447.63c35.117-244.617-135.326-472.08-379.79-507.219-102.508-14.704-207.619 6.783-295.991 60.432-15.098 9.189-19.912 28.882-10.744 43.98 9.255 14.965 28.86 19.91 43.979 10.721 75.681-45.991 165.783-64.37 253.675-51.768 209.5 30.063 355.57 225.056 325.506 434.754-14.572 101.522-67.827 191.273-149.942 252.757-82.092 61.512-183.22 87.33-284.722 72.715-209.717-30.053-355.744-225.09-325.616-434.698 7.899-54.876 26.934-106.162 56.712-152.372 9.54-14.922 5.186-34.788-9.584-44.24-14.855-9.583-34.678-5.295-44.24 9.539-34.746 54.088-56.997 113.907-66.252 177.97-17 118.415 13.15 236.48 84.96 332.269a448.524 448.524 0 0 0 42.381 48.966zM332.71 198.336V539.67h-53.542c-13.386 0-20.079 7.426-20.079 22.31 0 11.886 6.694 18.579 20.079 20.078h89.237c10.388 0 15.617-4.462 15.617-13.386v-370.336c-1.5-14.884-10.423-22.309-26.772-22.309-16.383 0.002-24.54 7.426-24.54 22.31zM569.189 539.67l-15.616-111.547c14.849 7.425 32.696 11.887 53.542 13.386 62.465-7.46 97.394-49.08 104.853-124.933-4.46-92.235-49.079-139.084-133.856-140.549-62.465 1.465-100.391 23.042-113.777 64.698 0 11.887 5.926 18.579 17.847 20.078 4.462 0 12.619-5.228 24.54-15.617 23.774-17.847 48.313-26.771 73.62-26.771 47.582 2.963 73.622 32.697 78.083 89.237-2.998 55.007-26.771 84.01-71.39 87.007-16.383 0-34.23-3.73-53.541-11.154-7.46-2.998-12.653-4.463-15.618-4.463-11.921 0-17.847 5.194-17.847 15.617 0 4.461 1.465 15.616 4.462 33.464L526.8 568.672c-1.5 8.924 4.46 13.386 17.847 13.386h140.55c13.384-1.5 20.81-8.192 22.308-20.078-1.499-14.884-8.924-22.31-22.309-22.31H569.19z"  horiz-adv-x="1024" />

    
    <glyph glyph-name="zuobiao" unicode="&#58628;" d="M527.053 799.076c-169.131-0.322-306.127-137.496-306.127-306.7 0-157.986 128.978-324.17 278.121-502.935 7.838-9.418 17.977-14.485 28.006-15.061 10.029 0.576 20.168 5.643 28.002 15.061 149.144 178.765 278.123 344.948 278.123 502.935 0 169.205-136.997 306.378-306.126 306.7zM527.053 395.033c-66.07 0.358-119.562 53.956-119.562 120.099s53.492 119.74 119.562 120.099c66.069-0.358 119.557-53.956 119.557-120.099s-53.487-119.74-119.557-120.099z"  horiz-adv-x="1024" />

    
    <glyph glyph-name="yuandiancopy" unicode="&#58928;" d="M512 0a384 384 0 1 0 0 768 384 384 0 0 0 0-768z m0 51.2a332.8 332.8 0 1 1 0 665.6 332.8 332.8 0 0 1 0-665.6z"  horiz-adv-x="1024" />

    
    <glyph glyph-name="ren" unicode="&#58906;" d="M660.338 367.935c63.61 46.825 105.131 121.964 105.131 206.83 0 141.7-115.29 256.987-256.997 256.987-141.706 0-256.998-115.288-256.998-256.987 0-85.901 42.52-161.887 107.456-208.562-152.1-59.92-260.185-207.961-260.185-381.077 0-21.276 17.253-38.53 38.53-38.53 21.278 0 38.53 17.254 38.53 38.53 0 183.426 149.232 332.671 332.667 332.671 1.589 0 3.113 0.207 4.694 0.244 0.8-0.056 1.553-0.244 2.362-0.244 183.434 0 332.664-149.245 332.664-332.671 0-21.276 17.255-38.53 38.533-38.53 21.277 0 38.53 17.254 38.53 38.53 0 174.885-110.354 324.13-264.917 382.809z m-331.803 206.83c0 99.22 80.72 179.927 179.935 179.927s179.937-80.708 179.937-179.927c0-99.203-80.721-179.91-179.937-179.91s-179.935 80.708-179.935 179.91z"  horiz-adv-x="1024" />

    
    <glyph glyph-name="shoucang" unicode="&#59053;" d="M799.8464 895.8976c-93.5424 0-180.224-47.616-237.8752-125.7984C504.9856 848.384 417.5872 895.8976 324.0448 895.8976 155.648 895.8976 18.6368 744.448 18.6368 558.592c0-110.7456 48.9472-188.9792 88.576-251.5456 114.6368-182.1184 403.3536-408.064 415.744-417.4336a62.0544 62.0544 0 0 1 78.0288 0c12.3904 9.4208 300.4928 235.9296 415.744 417.4336 39.6288 62.5664 88.576 140.8 88.576 251.5456 0 185.856-136.96 337.3056-305.4592 337.3056z m138.1888-587.008c-105.984-150.1696-330.24-321.6384-341.4016-329.728a57.6 57.6 0 0 0-34.6624-12.544 52.736 52.736 0 0 0-34.7136 12.4928c-11.1616 8.192-231.0656 181.504-341.3504 336.0768-35.328 56.32-91.648 126.3616-91.648 225.28 0 166.4 91.648 283.4432 242.176 283.4432 83.6608 0 174.7456-80.6912 225.536-150.784 51.4048 70.0928 141.824 150.784 225.4848 150.784 151.1936 0 249.0368-116.992 249.0368-283.4432 0-98.9184-62.5664-175.872-98.4576-231.5776z"  horiz-adv-x="1126" />

    
    <glyph glyph-name="banshou" unicode="&#58892;" d="M941.214 122.169a32.383 32.383 0 0 1-8.92 16.71L659.774 410.43c11.047 28.092 18.1 58.19 20.464 89.597 0.495 2.258 0.765 4.601 0.765 7.008l-0.205 2.164c0.216 4.737 0.331 9.5 0.331 14.292 0 170.725-138.406 309.124-309.133 309.124-44.025 0-85.89-9.22-123.794-25.81a32.383 32.383 0 0 1-17.797-8.479 308.304 308.304 0 0 1-10.78-5.828l3.723-3.724c-5.885-12.125-3.801-27.143 6.27-37.215L375.5 604.77l-83.828-84.479-146.21 147.112c-10.567 10.58-26.61 12.347-39.026 5.316l-3.413 3.195a307.715 307.715 0 0 1-6.179-11.452 32.32 32.32 0 0 1-6.025-12.416c-17.93-39.148-27.94-82.678-27.94-128.554 0-170.728 138.39-309.125 309.117-309.125 39.1 0 76.498 7.272 110.931 20.52L731.99-13.29a125.757 125.757 0 0 1 22.444-22.364l1.668-1.662a32.36 32.36 0 0 1 12.392-7.758c18.342-10.555 39.611-16.593 62.292-16.593 69.076 0 125.075 56 125.075 125.074 0 21.24-5.303 41.24-14.646 58.76zM830.85 2.56c-11.418 0-22.098 3.153-31.226 8.63l-20.844 20.77a60.987 60.987 0 0 0-2.28 4.14l-65.075 64.713c-0.139-0.44-0.287-0.877-0.42-1.32L543.575 266.33c0.097 0.065 0.195 0.127 0.292 0.192l-47.081 47.08c-36.736-21.946-79.684-34.57-125.585-34.57-135.45 0-245.27 109.811-245.27 245.261 0 21.556 2.786 42.46 8.011 62.377l127.742-128.537a32.6 32.6 0 0 1 2.746-2.445 32.64 32.64 0 0 1 3.992-4.848c12.712-12.712 33.305-12.712 46.018 0l129.699 130.7c12.712 12.712 12.712 33.314 0 46.026a33.197 33.197 0 0 1-2.504 2.26 32.684 32.684 0 0 1-3.756 4.51L310.918 762.077c19.287 4.879 39.48 7.483 60.284 7.483 135.45 0 245.252-109.812 245.252-245.269 0-2.515-0.05-5.017-0.126-7.514a32.713 32.713 0 0 1-0.7-6.724l0.246-2.585c-1.771-26.097-7.62-51.076-16.92-74.301l4.073-2.802a32.682 32.682 0 0 1-5.098-4.167c-12.714-12.712-12.714-33.315 0-46.027l155.519-154.963 0.272 0.292 28.646-29.107 13.047-13-0.192-0.06 66.683-67.755a61.189 61.189 0 0 0 4.597-3.018l13.447-13.398a60.49 60.49 0 0 0 11.685-35.816c-0.002-33.564-27.222-60.786-60.783-60.786z"  horiz-adv-x="1024" />

    
    <glyph glyph-name="dianhua" unicode="&#58926;" d="M614.22 196.066c1.746 1.084 20.9 13.07 26.503 16.444 10.36 6.265 18.914 10.963 27.467 14.818 60.115 27.347 113.122 8.011 183.236-73.909 43.37-50.718 56.2-95.714 39.454-135.77-12.469-29.937-36.503-50.598-79.27-76.137-2.77-1.627-27.407-15.963-33.731-19.878-99.57-61.44-327.8 79.21-491.942 319.548C121.374 482.123 78.787 739.027 179.682 801.37l13.312 8.433L207.45 819.2c51.02 33.009 83.667 46.2 122.398 39.635 38.672-6.626 71.56-35.238 99.389-87.341 58.669-110.23 45.718-162.515-29.757-210.04-5.42-3.494-24.696-15.12-26.503-16.264-18.492-11.445 12.83-88.125 85.655-194.741C532.36 242.628 593.98 183.657 614.159 196.066z"  horiz-adv-x="1024" />

    
    <glyph glyph-name="qitian" unicode="&#58629;" d="M888.89955 667.250375c-15.864068-10.746627-20.469765-32.23988-9.723138-48.103948 46.568716-71.132434 71.644178-154.034983 71.644178-240.007996 0-116.677661-45.545227-226.702649-127.936032-309.093453s-192.415792-127.936032-309.093454-127.936032c-75.738131 0-149.941029 19.446277-215.444277 56.803598-63.456272 35.822089-117.189405 87.508246-156.081959 149.941029l-0.511745 0.511744c-46.568716 71.132434-71.644178 154.034983-71.644177 240.007996 0 116.677661 45.545227 226.702649 127.936032 309.093454s192.415792 127.936032 309.093453 127.936032c55.268366 0 109.001499-10.234883 160.175912-30.192904 29.681159-11.770115 58.338831-26.610695 84.437781-44.521739 15.864068-10.746627 37.357321-6.652674 48.103948 9.211394 10.746627 15.864068 6.652674 37.357321-9.211394 48.103948-30.704648 20.981509-63.456272 38.38081-98.254873 51.686157C633.53923 884.229885 571.106447 896 507.138431 896 438.564718 896 372.037981 882.694653 309.605197 856.083958 249.21939 830.496752 194.974513 794.162919 148.405797 747.594203c-46.568716-46.568716-82.902549-100.813593-108.489755-161.1994C13.305347 523.962019 0 457.435282 0 388.861569c0-99.278361 28.657671-194.974513 82.902549-277.877061 44.521739-71.644178 106.954523-131.518241 180.645677-172.969515 75.738131-42.986507 162.222889-66.014993 249.731134-66.014993 68.573713 0 134.588706 13.305347 197.533234 39.916042 60.385807 25.587206 114.630685 61.921039 161.1994 108.489755 46.568716 46.568716 82.902549 100.813593 108.489755 161.1994 26.610695 62.432784 39.916042 128.95952 39.916042 197.533234 0 99.278361-28.657671 195.486257-82.902549 277.877061-10.746627 16.375812-32.751624 20.981509-48.615692 10.234883zM422.188906 222.03298400000006l151.988006 287.088455H419.630185c-30.192904 0-45.033483 14.328836-45.033483 42.474763 0 25.075462 14.84058 38.892554 45.033483 40.427786h218.514743c25.075462-1.535232 40.427786-15.864068 45.033483-42.474763 0-9.723138-4.605697-23.028486-14.328836-40.427786l-149.429285-306.022988c-1.535232-3.070465-3.070465-5.629185-4.605697-7.164418-12.793603-25.587206-28.657671-37.357321-47.592204-35.822089-30.192904 0-46.568716 13.305347-49.639181 40.427786 0 3.070465 1.023488 7.164418 2.558721 11.770115-0.511744 3.582209 0 6.652674 2.046977 9.723139z"  horiz-adv-x="1024" />

    
    <glyph glyph-name="miaosha" unicode="&#58890;" d="M511.620741-97.848889c-65.042963 0-128.18963 12.705185-187.638519 37.925926-57.362963 24.272593-108.942222 58.974815-153.220741 103.253333s-78.980741 95.762963-103.253333 153.220741c-25.125926 59.448889-37.925926 122.595556-37.925926 187.638519s12.705185 128.18963 37.925926 187.638518c24.272593 57.362963 58.974815 108.942222 103.253333 153.220741 44.278519 44.278519 95.762963 78.980741 153.220741 103.253333 59.448889 25.125926 122.595556 37.925926 187.638519 37.925926s128.18963-12.705185 187.638518-37.925926C756.622222 803.84 808.106667 769.137778 852.385185 724.859259c44.278519-44.278519 78.980741-95.762963 103.253334-153.22074 25.125926-59.448889 37.925926-122.595556 37.925925-187.638519s-12.705185-128.18963-37.925925-187.638519c-24.272593-57.362963-58.974815-108.942222-103.253334-153.22074s-95.762963-78.980741-153.220741-103.253334c-59.354074-24.936296-122.500741-37.736296-187.543703-37.736296z m0 900.740741C280.746667 802.891852 92.918519 614.968889 92.918519 384.094815s187.828148-418.702222 418.702222-418.702222c230.874074 0 418.702222 187.828148 418.702222 418.702222S742.494815 802.891852 511.620741 802.891852zM698.595556 180.811852c-8.059259 0-16.213333 3.128889-22.376297 9.291852L489.244444 376.983704c-5.878519 5.878519-9.291852 13.937778-9.291851 22.376296v256c0 17.445926 14.127407 31.573333 31.573333 31.573333s31.573333-14.127407 31.573333-31.573333V412.444444l177.682963-177.682963c12.325926-12.325926 12.325926-32.331852 0-44.657777-6.068148-6.257778-14.127407-9.291852-22.186666-9.291852z"  horiz-adv-x="1024" />

    
    <glyph glyph-name="yellow-copy" unicode="&#58640;" d="M512 384m-251.74102802 0a251.74102802 251.74102802 0 1 1 503.48205604 0 251.74102802 251.74102802 0 1 1-503.48205605 0ZM512 384m-94.40288551 0a94.40288551 94.40288551 0 1 1 188.80577101 0 94.40288551 94.40288551 0 1 1-188.80577101 0Z"  horiz-adv-x="1024" />

    
    <glyph glyph-name="liwu" unicode="&#58891;" d="M480.696 446.335v93.913h-281.74A46.957 46.957 0 0 1 152 493.29v-46.956h328.696z m62.608 0H872V493.29a46.957 46.957 0 0 1-46.957 46.957H543.304v-93.913zM480.696 15.9V383.726H191.13v-281.739a86.087 86.087 0 0 1 86.087-86.087h203.479z m62.608 0h203.479a86.087 86.087 0 0 1 86.087 86.087v281.74H543.304V15.9z m352.174 367.826v-281.739a148.696 148.696 0 0 0-148.695-148.696H277.217a148.696 148.696 0 0 0-148.695 148.696v281.74h-3.913a35.217 35.217 0 0 0-35.218 35.216v74.348a109.565 109.565 0 0 0 109.566 109.566h48.521L234.174 616.2A109.565 109.565 0 1 0 389.13 771.157L512 648.247l122.909 122.91A109.565 109.565 0 1 0 789.865 616.2l-13.343-13.343h48.521A109.565 109.565 0 0 0 934.61 493.29v-74.348a35.217 35.217 0 0 0-35.218-35.217h-3.913zM687.97 602.856l57.639 57.64a46.957 46.957 0 0 1-66.405 66.404L556.217 603.913l0.9-1.096H687.93z m-221.127 0a31.54 31.54 0 0 0 0.9 1.096L344.796 726.9a46.957 46.957 0 1 1-66.405-66.404l53.492-53.492a31.5 31.5 0 0 0 3.521-4.147h131.44z"  horiz-adv-x="1024" />

    
    <glyph glyph-name="sousuo" unicode="&#58917;" d="M918.1 27.6L791 153.1c57.2 68.1 91.7 155.9 91.7 251.6 0 216.1-175.9 391.9-392 391.9s-392-175.8-392-391.9 175.9-391.9 392-391.9c94.8 0 181.9 33.8 249.7 90l127.5-126c14-13.8 36.6-13.7 50.4 0.3 13.9 14.1 13.8 36.6-0.2 50.5z m-427.4 56.5C313.9 84.1 170 227.9 170 404.7s143.9 320.6 320.8 320.6 320.8-143.8 320.8-320.6c-0.1-176.8-144-320.6-320.9-320.6z"  horiz-adv-x="1024" />

    
    <glyph glyph-name="icon_qiyetuangou" unicode="&#59003;" d="M865.61 459.34l-317.7 57.88 0.09 155.63a115 115 0 0 1-145.66 110.89l-0.63-0.18-256.41-76A115 115 0 0 1 63 597.28v-511.63c0-64.18 55-116.4 122.55-116.4h323.33a35.27 35.27 0 0 1 4.12-0.25h326.92C906.13-31 960 20.59 960 84V346.2a115 115 0 0 1-94.39 113.14zM477.76 39.25H185.55c-29 0-52.55 20.81-52.55 46.4V597.28a45.27 45.27 0 0 0 32.21 43.14l256.05 75.92A45 45 0 0 0 478 672.88zM890 84c0-24.81-22.47-45-50.08-45H548V446l305.06-55.58A45 45 0 0 0 890 346.2zM365 522.75H240.24a35 35 0 0 1 0-70H365a35 35 0 0 1 0 70zM365 298.75H240.24a35 35 0 0 1 0-70H365a35 35 0 0 1 0 70zM786 298.75H652a35 35 0 0 1 0-70h134a35 35 0 0 1 0 70z"  horiz-adv-x="1024" />

    
    <glyph glyph-name="youjiantou" unicode="&#58630;" d="M742.759 808.60200001l-36.198 36.198-450.56-450.56000001 450.56-450.56 36.198 36.198-414.36200001 414.362z"  horiz-adv-x="1024" />

    
    <glyph glyph-name="xingxing-copy" unicode="&#58631;" d="M844.401-38.36699999999996c7.698-40.229-15.77-58.11-52.402-39.986l-270.065 134.103-265.101-147.514c-36.01-19.989-60.095-3.228-53.89 37.376l45.941 299.5-220.149 205.872c-29.926 27.938-21.357 56.122 19.122 63.077l298.379 51.03 129.013 274.79c17.505 37.126 46.933 37.87 65.681 1.488l138.577-267.956 299.989-36.01c40.604-4.963 50.166-32.655 21.357-62.084l-212.701-216.672 56.247-297.015zM844.401-38.36699999999996z"  horiz-adv-x="1024" />

    
    <glyph glyph-name="shouji" unicode="&#58925;" d="M896.341333 896H127.658667A59.392 59.392 0 0 1 68.266667 836.608V-59.733333a68.266667 68.266667 0 0 1 68.266666-68.266667h750.933334a68.266667 68.266667 0 0 1 68.266666 68.266667V836.608A59.392 59.392 0 0 1 896.341333 896zM887.466667 827.733333v-640.341333H136.533333V827.733333zM136.533333-59.733333v178.858666h750.933334V-59.733333z m472.746667 49.493333h-194.56a34.133333 34.133333 0 0 0 0 68.266667h194.56a34.133333 34.133333 0 1 0 0-68.266667z"  horiz-adv-x="1024" />

    
    <glyph glyph-name="Frame1" unicode="&#58888;" d="M511.488001 895.93408a401.087248 401.087248 0 0 1-402.303246-402.239246C109.184755 274.239246 412.800186-128 511.488001-128c98.687815 0 402.239246 402.239246 402.239246 621.694834 0 223.039582-179.199664 402.239246-402.239246 402.239246z m0-932.478251c-65.855877 0-329.151383 361.983321-329.151383 530.239005a327.743385 327.743385 0 0 0 329.151383 329.087383 327.743385 327.743385 0 0 0 329.087383-329.087383c0-168.255685-263.295506-530.303006-329.087383-530.303005zM511.488001 639.99856a146.687725 146.687725 0 0 1-146.303726-146.303726 146.687725 146.687725 0 0 1 146.303726-146.303725 146.687725 146.687725 0 0 1 146.239726 146.303725 146.687725 146.687725 0 0 1-146.239726 146.239726z m0-219.519588a73.343862 73.343862 0 0 0-73.151863 73.215862c0 40.191925 32.895938 73.087863 73.151863 73.087863 40.191925 0 73.087863-32.895938 73.087863-73.087863 0-40.255925-32.895938-73.151863-73.087863-73.151863z"  horiz-adv-x="1024" />

    
    <glyph glyph-name="weixin" unicode="&#58633;" d="M1024 276.48c0 143.36-138.24 256-307.2 256s-307.2-112.64-307.2-256 138.24-256 307.2-256c30.72 0 61.44 5.12 92.16 10.24l97.28-51.2-25.6 76.8c87.04 51.2 143.36 128 143.36 220.16z m-414.72 40.96c-30.72 0-51.2 20.48-51.2 51.2s20.48 51.2 51.2 51.2 51.2-20.48 51.2-51.2c0-25.6-25.6-51.2-51.2-51.2z m209.92 0c-30.72 0-51.2 20.48-51.2 51.2s20.48 51.2 51.2 51.2 51.2-20.48 51.2-51.2c0-25.6-25.6-51.2-51.2-51.2zM358.4 286.72c0 158.72 153.6 286.72 348.16 286.72h15.36c-40.96 133.12-179.2 235.52-353.28 235.52-204.8 0-368.64-138.24-368.64-307.2 0-107.52 66.56-204.8 168.96-256l-30.72-92.16L256 209.91999999999996c35.84-10.24 71.68-15.36 112.64-15.36h10.24c-15.36 30.72-20.48 61.44-20.48 92.16z m138.24 414.72c35.84 0 66.56-30.72 66.56-66.56s-30.72-66.56-66.56-66.56C460.8 573.44 430.08 604.1600000000001 430.08 640S460.8 701.44 496.64 701.44zM245.76 573.44c-35.84 0-61.44 30.72-61.44 66.56s30.72 66.56 66.56 66.56 61.44-30.72 61.44-66.56-30.72-66.56-66.56-66.56z"  horiz-adv-x="1024" />

    
    <glyph glyph-name="index" unicode="&#58634;" d="M562.805 815.3025a72.135 72.135 0 0 1-96.92999999 0L73.925 443.13a36.15749997 36.15749997 0 0 1 48.42-53.70749999l6.2325 5.91749998V6.900000009999985a72.315 72.315 0 0 1 72.315-72.40500001h210.4425v217.70999999a50.91750001 50.91750001 0 0 0 50.94 50.98500001h99.0225a50.91750001 50.91750001 0 0 0 50.94-50.98500001v-217.70999999h215.4375a72.315 72.315 0 0 1 72.3375 72.40500001V390.5925c16.065-14.535 38.8575-13.4325 52.22249999 1.46249999a36.15749997 36.15749997 0 0 1-2.60999999 51.07500001L562.805 815.28z"  horiz-adv-x="1024" />

    
    <glyph glyph-name="qicheqianlian-select" unicode="&#58637;" d="M1005.94270776 98.96922112000004H265.53154332c-21.94242333 0-42.52558222 8.54395221-57.86585999 24.0784111-15.3402789 15.53445888-23.88423111 35.92343666-23.69005112 57.86586112l2.71853112 545.25952c0 21.74824334-7.57304889 36.3117989-45.24411334 42.3314011h-0.19417999l-108.74121557 18.64135111c-10.48576 1.74762667-17.67044779 11.84502557-15.92281998 22.33078557 1.74762667 10.48576 11.84502557 17.67044779 22.33078442 15.92282112l108.54703446-18.64135112c51.65207666-8.15559111 77.86647666-35.34089443 77.86647666-80.7791889L222.61759999 180.52513223999995c0-11.45666333 4.27197667-22.13660445 12.42756779-30.09801558 8.15559111-8.15559111 18.83553223-12.62174777 30.29219555-12.62174777h740.41116445c10.67994112 0 19.41807445-8.73813333 19.41807331-19.41807445s-8.54395221-19.41807445-19.22389333-19.41807332zM950.60119665 210.42896555000004l-685.65219556 2.13598891c-21.55406222 0.19418112-41.74885888 8.54395221-56.89495665 23.88423111-15.14609778 15.3402789-23.30168889 35.53507555-23.30168889 57.08913777l2.13598777 402.73085554L962.64040333 638.4033188999999c35.14671445-1.35926557 62.72037888-29.90383445 62.72037888-65.0505489V284.99437c0-41.16631666-33.59326777-74.56540445-74.75958556-74.56540445zM265.33736333 251.40110221999998l685.45801444-2.13598776c19.80643555 0 35.92343666 16.1170011 35.92343666 35.72925554V573.35277c0 14.17519445-11.26248334 25.8260389-25.43767666 26.2144h-0.77672334l-734.58574222 54.75896888-1.74762667-361.17617778c0-11.06830222 4.27197667-21.55406222 12.03920669-29.51547221 7.37886777-7.76723001 17.86462777-12.23338667 29.1271111-12.23338667zM340.87367111 34.889576680000005m-72.42941668 0a72.42941667 72.42941667 0 1 1 144.85883335 0 72.42941667 72.42941667 0 1 1-144.85883335 0ZM340.87367111-56.957914449999976c-50.68117333 0-91.84748999 41.16631666-91.84749 91.84749113s41.16631666 91.84748999 91.84749 91.84748999c50.68117333 0 91.84748999-41.16631666 91.84748998-91.84748999s-41.16631666-91.84748999-91.84748998-91.84749113z m0 144.85883335c-29.32129223 0-53.01134222-23.69004999-53.01134223-53.01134222s23.69004999-53.01134222 53.01134223-53.01134222 53.01134222 23.69004999 53.01134222 53.01134222-23.69004999 53.01134222-53.01134222 53.01134222zM896.81313223 34.889576680000005m-72.42941668 0a72.42941667 72.42941667 0 1 1 144.85883221 0 72.42941667 72.42941667 0 1 1-144.85883221 0ZM896.81313223-56.957914449999976c-50.68117333 0-91.84748999 41.16631666-91.84749114 91.84749113s41.16631666 91.84748999 91.84749114 91.84748999 91.84748999-41.16631666 91.84748998-91.84748999-41.16631666-91.84748999-91.84748998-91.84749113z m0 144.85883335c-29.32129223 0-53.01134222-23.69004999-53.01134223-53.01134222s23.69004999-53.01134222 53.01134223-53.01134222 53.01134222 23.69004999 53.01134222 53.01134222-23.69004999 53.01134222-53.01134222 53.01134222zM780.30468778 469.66025444H384.56433777c-10.67994112 0-19.41807445 8.73813333-19.41807445 19.41807445s8.73813333 19.41807445 19.41807445 19.41807445h395.74035001c10.67994112 0 19.41807445-8.73813333 19.41807331-19.41807445s-8.73813333-19.41807445-19.41807331-19.41807445zM780.30468778 358.00632888999996H384.56433777c-10.67994112 0-19.41807445 8.73813333-19.41807445 19.41807445s8.73813333 19.41807445 19.41807445 19.41807332h395.74035001c10.67994112 0 19.41807445-8.73813333 19.41807331-19.41807332s-8.73813333-19.41807445-19.41807331-19.41807445z"  horiz-adv-x="1024" />

    


  </font>
</defs>
</svg>
